# xmcd
#
# Track frame offsets:
#	150
#	11140
#	28906
#	46537
#	63842
#	81247
#	93405
#	107437
#	125270
#	141826
#
# Disc length: 2074
#
# Revision: 1
# Processed by: cddbd v1.5.1PL0 Copyright (c) Steve Scherf et al.
# Submitted via: dBpowerAMP V4.0
# Normalized: r0:TDELIM( - )
#
DISCID=7808180a
DTITLE=Various Artist - Kicking Ass And Taking Names
DYEAR=2004
DGENRE=Country
TTITLE0=Dwight Yoakam - The Late Great Golden State
TTITLE1=Sammy Kershaw - Beer Bait And Ammo
TTITLE2=Kentucky Headhunters - Last Night I Met Carl Perkins
TTITLE3=The Larkins - Lay Your Memory Down
TTITLE4=Charlie Daniels Band - My Beautiful America
TTITLE5=Ray Benson - Leave That Cowboy Alone
TTITLE6=Rodney Hayden - Living The Good Life
TTITLE7=Robert Earl Keen - Purnace Fan
TTITLE8=Jimmy Fortune - Money Can't Buy
TTITLE9=Kerosene Brothers - Ellie Schaffer
EXTD=
EXTT0=
EXTT1=
EXTT2=
EXTT3=
EXTT4=
EXTT5=
EXTT6=
EXTT7=
EXTT8=
EXTT9=
PLAYORDER=
